<svg viewBox="0 0 800 1400" xmlns="http://www.w3.org/2000/svg">
  <!-- Background and Base Styling -->
  <defs>
    <linearGradient id="headerGradient" x1="0%" y1="0%" x2="100%" y2="0%">
      <stop offset="0%" style="stop-color:#3f51b5;stop-opacity:1" />
      <stop offset="100%" style="stop-color:#5c6bc0;stop-opacity:1" />
    </linearGradient>
    <filter id="dropShadow">
      <feDropShadow dx="0" dy="2" stdDeviation="2" flood-opacity="0.3"/>
    </filter>
    <style>
      .card { fill: white; filter: url(#dropShadow); }
      .header-text { font-family: 'Roboto', sans-serif; font-size: 22px; font-weight: bold; fill: white; }
      .section-title { font-family: 'Roboto', sans-serif; font-size: 18px; font-weight: bold; fill: #333; }
      .body-text { font-family: 'Roboto', sans-serif; font-size: 14px; fill: #333; }
      .small-text { font-family: 'Roboto', sans-serif; font-size: 12px; fill: #666; }
      .btn-primary { fill: #3f51b5; }
      .btn-success { fill: #4caf50; }
      .btn-danger { fill: #f44336; }
      .btn-text { font-family: 'Roboto', sans-serif; font-size: 14px; fill: white; text-anchor: middle; }
      .nav-link { font-family: 'Roboto', sans-serif; font-size: 14px; fill: #333; text-anchor: middle; cursor: pointer; }
      .nav-link-active { font-family: 'Roboto', sans-serif; font-size: 14px; fill: #3f51b5; font-weight: bold; text-anchor: middle; }
    </style>
  </defs>

  <!-- Dashboard / Main Page -->
  <rect x="0" y="0" width="800" height="450" fill="#f9fafe"/>
  <rect x="0" y="0" width="800" height="70" fill="url(#headerGradient)"/>
  <text x="40" y="42" class="header-text">TaskIt</text>
  
  <!-- Header Timer Area -->
  <rect x="550" y="15" width="230" height="40" rx="20" fill="rgba(255,255,255,0.2)"/>
  <circle cx="580" cy="35" r="15" stroke="white" stroke-width="2" fill="none"/>
  <text x="580" y="40" font-family="Roboto" font-size="14" fill="white" text-anchor="middle">25:00</text>
  <rect x="610" y="20" width="80" height="30" rx="15" fill="rgba(255,255,255,0.3)"/>
  <text x="650" y="40" font-family="Roboto" font-size="12" fill="white" text-anchor="middle">Arbeitszeit</text>
  <circle cx="740" cy="35" r="15" fill="white"/>
  <text x="740" y="40" font-family="Roboto" font-size="18" fill="#3f51b5" text-anchor="middle">▶</text>
  
  <!-- Dashboard Content Area -->
  <rect x="20" y="90" width="760" height="310" rx="8" class="card"/>
  
  <!-- Tasks Section -->
  <text x="40" y="120" class="section-title">Heutige Aufgaben</text>
  
  <!-- Filter/Sort Area -->
  <rect x="530" y="100" width="230" height="30" rx="15" fill="#f0f2fa" stroke="#d0d4e7"/>
  <text x="550" y="120" class="small-text">Sortieren:</text>
  <text x="620" y="120" class="small-text" font-weight="bold">Priorität</text>
  <text x="680" y="120" class="small-text">|</text>
  <text x="700" y="120" class="small-text">Status</text>
  <text x="740" y="120" class="small-text">▼</text>
  
  <!-- Task List -->
  <rect x="40" y="140" width="720" height="200" fill="#f8f9fc" rx="6" stroke="#e0e4f0"/>
  
  <!-- Task Item 1 -->
  <rect x="50" y="150" width="700" height="45" rx="4" fill="white" stroke="#e6e8f0"/>
  <rect x="60" y="162.5" width="20" height="20" rx="2" fill="none" stroke="#3f51b5"/>
  <text x="100" y="177.5" class="body-text">Projektbericht fertigstellen</text>
  <rect x="530" y="162.5" width="60" height="20" rx="10" fill="#f44336"/>
  <text x="560" y="177.5" font-family="Roboto" font-size="11" fill="white" text-anchor="middle">Hoch</text>
  <text x="620" y="177.5" class="small-text">2h</text>
  <rect x="650" y="162.5" width="75" height="20" rx="10" fill="#ffd740"/>
  <text x="687.5" y="177.5" font-family="Roboto" font-size="11" fill="#333" text-anchor="middle">In Arbeit</text>
  
  <!-- Task Item 2 -->
  <rect x="50" y="200" width="700" height="45" rx="4" fill="#fafbfe" stroke="#e6e8f0"/>
  <rect x="60" y="212.5" width="20" height="20" rx="2" fill="#4caf50" stroke="#4caf50"/>
  <text x="72" y="226.5" font-family="Arial" font-size="14" fill="white">✓</text>
  <text x="100" y="227.5" class="body-text" style="text-decoration:line-through;fill:#9e9e9e;">E-Mails beantworten</text>
  <rect x="530" y="212.5" width="60" height="20" rx="10" fill="#ff9800"/>
  <text x="560" y="227.5" font-family="Roboto" font-size="11" fill="white" text-anchor="middle">Mittel</text>
  <text x="620" y="227.5" class="small-text">30m</text>
  <rect x="650" y="212.5" width="75" height="20" rx="10" fill="#4caf50"/>
  <text x="687.5" y="227.5" font-family="Roboto" font-size="11" fill="white" text-anchor="middle">Erledigt</text>
  
  <!-- Task Item 3 -->
  <rect x="50" y="250" width="700" height="45" rx="4" fill="white" stroke="#e6e8f0"/>
  <rect x="60" y="262.5" width="20" height="20" rx="2" fill="none" stroke="#3f51b5"/>
  <text x="100" y="277.5" class="body-text">Meeting vorbereiten</text>
  <rect x="530" y="262.5" width="60" height="20" rx="10" fill="#f44336"/>
  <text x="560" y="277.5" font-family="Roboto" font-size="11" fill="white" text-anchor="middle">Hoch</text>
  <text x="620" y="277.5" class="small-text">1h</text>
  <rect x="650" y="262.5" width="75" height="20" rx="10" fill="#9e9e9e"/>
  <text x="687.5" y="277.5" font-family="Roboto" font-size="11" fill="white" text-anchor="middle">Offen</text>
  
  <!-- Add Task Button -->
  <rect x="640" y="360" width="120" height="36" rx="18" class="btn-primary"/>
  <text x="700" y="382" class="btn-text">+ Neue Aufgabe</text>
  
  <!-- Quick Statistics -->
  <rect x="40" y="310" width="230" height="80" rx="6" fill="#f0f2fa" stroke="#d0d4e7"/>
  <text x="60" y="335" class="body-text" font-weight="bold">Heute erledigt: 1/3</text>
  <rect x="60" y="345" width="190" height="6" rx="3" fill="#e0e4f0"/>
  <rect x="60" y="345" width="63" height="6" rx="3" fill="#4caf50"/>
  <text x="60" y="370" class="small-text">Aktueller Fokus: 45 min</text>
  
  <rect x="280" y="310" width="230" height="80" rx="6" fill="#f0f2fa" stroke="#d0d4e7"/>
  <text x="300" y="335" class="body-text" font-weight="bold">Wochenübersicht</text>
  <!-- Mini Bar Chart -->
  <rect x="300" y="345" width="25" height="30" fill="#c5cae9"/>
  <rect x="330" y="350" width="25" height="25" fill="#c5cae9"/>
  <rect x="360" y="335" width="25" height="40" fill="#3f51b5"/>
  <rect x="390" y="355" width="25" height="20" fill="#c5cae9"/>
  <rect x="420" y="345" width="25" height="30" fill="#c5cae9"/>
  <rect x="450" y="340" width="25" height="35" fill="#c5cae9"/>
  <rect x="300" y="380" width="175" height="1" fill="#9e9e9e"/>
  
  <!-- Navigation Bar -->
  <rect x="0" y="400" width="800" height="50" fill="white" stroke="#e0e0e0"/>
  <text x="100" y="430" class="nav-link-active">Dashboard</text>
  <text x="250" y="430" class="nav-link">Aufgaben</text>
  <text x="400" y="430" class="nav-link">Timer</text>
  <text x="550" y="430" class="nav-link">Auswertungen</text>
  <text x="700" y="430" class="nav-link">Einstellungen</text>

  <!-- Tasks Page -->
  <rect x="0" y="450" width="800" height="450" fill="#f9fafe"/>
  <rect x="0" y="450" width="800" height="70" fill="url(#headerGradient)"/>
  <text x="40" y="492" class="header-text">TaskIt</text>
  <text x="120" y="492" class="header-text" style="font-size:18px;font-weight:normal;">/ Aufgabenverwaltung</text>
  
  <!-- Tasks Content Area -->
  <rect x="20" y="540" width="760" height="310" rx="8" class="card"/>
  
  <!-- Tasks Filter Area -->
  <rect x="40" y="560" width="720" height="50" fill="#f8f9fc" rx="6"/>
  
  <rect x="50" y="570" width="120" height="30" rx="15" fill="white" stroke="#d0d4e7"/>
  <text x="80" y="590" class="small-text">Status</text>
  <text x="140" y="590" class="small-text">▼</text>
  
  <rect x="180" y="570" width="120" height="30" rx="15" fill="white" stroke="#d0d4e7"/>
  <text x="210" y="590" class="small-text">Priorität</text>
  <text x="270" y="590" class="small-text">▼</text>
  
  <rect x="310" y="570" width="220" height="30" rx="15" fill="white" stroke="#d0d4e7"/>
  <text x="340" y="590" class="small-text">🔍 Suche nach Aufgaben...</text>
  
  <rect x="650" y="570" width="110" height="30" rx="15" class="btn-primary"/>
  <text x="705" y="590" class="btn-text">+ Neu</text>
  
  <!-- Tasks Table Header -->
  <rect x="40" y="620" width="720" height="40" fill="#f0f2fa" rx="6 6 0 0"/>
  <circle cx="65" cy="640" r="10" fill="none" stroke="#9e9e9e"/>
  <text x="120" y="645" class="small-text" font-weight="bold">Aufgabentitel</text>
  <text x="350" y="645" class="small-text" font-weight="bold">Priorität</text>
  <text x="450" y="645" class="small-text" font-weight="bold">Zeitaufwand</text>
  <text x="550" y="645" class="small-text" font-weight="bold">Status</text>
  <text x="670" y="645" class="small-text" font-weight="bold">Aktionen</text>
  
  <!-- Tasks Table Rows -->
  <rect x="40" y="660" width="720" height="45" fill="white" stroke="#e6e8f0"/>
  <circle cx="65" cy="682.5" r="10" fill="none" stroke="#3f51b5"/>
  <text x="120" y="687.5" class="body-text">Projektbericht fertigstellen</text>
  <rect x="350" y="672.5" width="60" height="20" rx="10" fill="#f44336"/>
  <text x="380" y="687.5" font-family="Roboto" font-size="11" fill="white" text-anchor="middle">Hoch</text>
  <text x="450" y="687.5" class="body-text">2h</text>
  <rect x="550" y="672.5" width="80" height="20" rx="10" fill="#ffd740"/>
  <text x="590" y="687.5" font-family="Roboto" font-size="11" fill="#333" text-anchor="middle">In Arbeit</text>
  <text x="670" y="687.5" class="body-text">✏️ 🗑️</text>
  
  <rect x="40" y="705" width="720" height="45" fill="#fafbfe" stroke="#e6e8f0"/>
  <circle cx="65" cy="727.5" r="10" fill="#4caf50" stroke="#4caf50"/>
  <text x="65" y="732.5" font-family="Roboto" font-size="14" fill="white" text-anchor="middle">✓</text>
  <text x="120" y="732.5" class="body-text" style="text-decoration:line-through;fill:#9e9e9e;">E-Mails beantworten</text>
  <rect x="350" y="717.5" width="60" height="20" rx="10" fill="#ff9800"/>
  <text x="380" y="732.5" font-family="Roboto" font-size="11" fill="white" text-anchor="middle">Mittel</text>
  <text x="450" y="732.5" class="body-text">30m</text>
  <rect x="550" y="717.5" width="80" height="20" rx="10" fill="#4caf50"/>
  <text x="590" y="732.5" font-family="Roboto" font-size="11" fill="white" text-anchor="middle">Erledigt</text>
  <text x="670" y="732.5" class="body-text">✏️ 🗑️</text>
  
  <rect x="40" y="750" width="720" height="45" fill="white" stroke="#e6e8f0"/>
  <circle cx="65" cy="772.5" r="10" fill="none" stroke="#3f51b5"/>
  <text x="120" y="777.5" class="body-text">Meeting vorbereiten</text>
  <rect x="350" y="762.5" width="60" height="20" rx="10" fill="#f44336"/>
  <text x="380" y="777.5" font-family="Roboto" font-size="11" fill="white" text-anchor="middle">Hoch</text>
  <text x="450" y="777.5" class="body-text">1h</text>
  <rect x="550" y="762.5" width="80" height="20" rx="10" fill="#9e9e9e"/>
  <text x="590" y="777.5" font-family="Roboto" font-size="11" fill="white" text-anchor="middle">Offen</text>
  <text x="670" y="777.5" class="body-text">✏️ 🗑️</text>
  
  <!-- Pagination -->
  <rect x="280" y="810" width="240" height="30" fill="none"/>
  <circle cx="370" cy="825" r="12" fill="#eee" stroke="#ddd"/>
  <text x="370" y="830" font-family="Roboto" font-size="12" text-anchor="middle">1</text>
  <circle cx="400" cy="825" r="12" fill="#3f51b5"/>
  <text x="400" y="830" font-family="Roboto" font-size="12" text-anchor="middle" fill="white">2</text>
  <circle cx="430" cy="825" r="12" fill="#eee" stroke="#ddd"/>
  <text x="430" y="830" font-family="Roboto" font-size="12" text-anchor="middle">3</text>
  
  <!-- Navigation Bar -->
  <rect x="0" y="850" width="800" height="50" fill="white" stroke="#e0e0e0"/>
  <text x="100" y="880" class="nav-link">Dashboard</text>
  <text x="250" y="880" class="nav-link-active">Aufgaben</text>
  <text x="400" y="880" class="nav-link">Timer</text>
  <text x="550" y="880" class="nav-link">Auswertungen</text>
  <text x="700" y="880" class="nav-link">Einstellungen</text>
  
  <!-- Timer Page -->
  <rect x="0" y="900" width="800" height="500" fill="#f9fafe"/>
  <rect x="0" y="900" width="800" height="70" fill="url(#headerGradient)"/>
  <text x="40" y="942" class="header-text">TaskIt</text>
  <text x="120" y="942" class="header-text" style="font-size:18px;font-weight:normal;">/ Pomodoro Timer</text>

  <!-- Timer Content -->
  <rect x="100" y="1000" width="600" height="350" rx="8" class="card"/>
  
  <!-- Pomodoro Circle -->
  <circle cx="400" cy="1150" r="100" fill="none" stroke="#3f51b5" stroke-width="8"/>
  <circle cx="400" cy="1150" r="100" fill="none" stroke="#e1e4f6" stroke-width="8" stroke-dasharray="565.48" stroke-dashoffset="424.11"/>
  <text x="400" y="1140" font-family="Roboto" font-size="48" fill="#3f51b5" text-anchor="middle" font-weight="bold">25:00</text>
  <text x="400" y="1175" font-family="Roboto" font-size="16" fill="#3f51b5" text-anchor="middle">Arbeitszeit</text>
  
  <!-- Timer Controls -->
  <circle cx="320" cy="1280" r="30" class="btn-primary"/>
  <text x="320" y="1285" font-family="Roboto" font-size="18" fill="white" text-anchor="middle">◀</text>
  
  <circle cx="400" cy="1280" r="30" class="btn-success"/>
  <text x="400" y="1285" font-family="Roboto" font-size="18" fill="white" text-anchor="middle">▶</text>
  
  <circle cx="480" cy="1280" r="30" class="btn-danger"/>
  <text x="480" y="1285" font-family="Roboto" font-size="18" fill="white" text-anchor="middle">■</text>
  
  <!-- Timer Settings -->
  <rect x="150" y="990" width="500" height="120" fill="#f8f9fc" rx="6"/>
  
  <text x="170" y="1020" class="body-text">Arbeitsintervall:</text>
  <rect x="280" y="1000" width="60" height="30" rx="4" fill="white" stroke="#d0d4e7"/>
  <text x="310" y="1020" class="body-text" text-anchor="middle">25</text>
  <text x="350" y="1020" class="body-text">min</text>
  
  <text x="170" y="1060" class="body-text">Kurze Pause:</text>
  <rect x="280" y="1040" width="60" height="30" rx="4" fill="white" stroke="#d0d4e7"/>
  <text x="310" y="1060" class="body-text" text-anchor="middle">5</text>
  <text x="350" y="1060" class="body-text">min</text>
  
  <text x="430" y="1020" class="body-text">Lange Pause:</text>
  <rect x="520" y="1000" width="60" height="30" rx="4" fill="white" stroke="#d0d4e7"/>
  <text x="550" y="1020" class="body-text" text-anchor="middle">15</text>
  <text x="580" y="1020" class="body-text">min</text>
  
  <text x="430" y="1060" class="body-text">Zyklen:</text>
  <rect x="520" y="1040" width="60" height="30" rx="4" fill="white" stroke="#d0d4e7"/>
  <text x="550" y="1060" class="body-text" text-anchor="middle">4</text>
  
  <!-- Current Task Box -->
  <rect x="150" y="1320" width="500" height="70" rx="6" fill="#e8f0fe" stroke="#c0d6f9"/>
  <text x="170" y="1345" class="body-text" font-weight="bold">Aktuelle Aufgabe:</text>
  <text x="290" y="1345" class="body-text">Projektbericht fertigstellen</text>
  <text x="170" y="1370" class="small-text">Priorität: Hoch | Verbleibend: 2h | Erledigt: 0h</text>
  
  <!-- Session Progress -->
  <rect x="240" y="1230" width="320" height="20" rx="10" fill="#f0f2fa"/>
  <circle cx="280" cy="1240" r="8" fill="#4caf50"/>
  <circle cx="340" cy="1240" r="8" fill="#4caf50"/>
  <circle cx="400" cy="1240" r="8" fill="#3f51b5" stroke="#fff" stroke-width="2"/>
  <circle cx="460" cy="1240" r="8" fill="#e0e4f0"/>
  <circle cx="520" cy="1240" r="8" fill="#e0e4f0"/>
  <text x="400" y="1215" class="small-text" text-anchor="middle">Session 3/5</text>
  
  <!-- Navigation Bar -->
  <rect x="0" y="1350" width="800" height="50" fill="white" stroke="#e0e0e0"/>
  <text x="100" y="1380" class="nav-link">Dashboard</text>
  <text x="250" y="1380" class="nav-link">Aufgaben</text>
  <text x="400" y="1380" class="nav-link-active">Timer</text>
  <text x="550" y="1380" class="nav-link">Auswertungen</text>
  <text x="700" y="1380" class="nav-link">Einstellungen</text>
</svg>
